<!-- icon666.com - MILLIONS vector ICONS FREE --><svg id="Layer_1" enable-background="new 0 0 512 512" viewBox="0 0 512 512" xmlns="http://www.w3.org/2000/svg"><path d="m288.5 93.999c0-4.418 3.582-8 8-8h121.501c4.418 0 8 3.582 8 8v121.501c0 4.418-3.582 8-8 8s-8-3.582-8-8v-113.501h-113.501c-4.418 0-8-3.582-8-8zm-194.502 129.501c4.418 0 8-3.582 8-8v-113.501h113.502c4.418 0 8-3.582 8-8s-3.582-8-8-8h-121.502c-4.418 0-8 3.582-8 8v121.501c0 4.418 3.582 8 8 8zm324.003 65c-4.418 0-8 3.582-8 8v113.501h-113.501c-4.418 0-8 3.582-8 8s3.582 8 8 8h121.501c4.418 0 8-3.582 8-8v-121.501c0-4.418-3.582-8-8-8zm-202.501 121.501h-113.502v-113.501c0-4.418-3.582-8-8-8s-8 3.582-8 8v121.501c0 4.418 3.582 8 8 8h121.502c4.418 0 8-3.582 8-8s-3.582-8-8-8zm288.5-162.001h-496c-4.418 0-8 3.582-8 8s3.582 8 8 8h496c4.418 0 8-3.582 8-8s-3.582-8-8-8z" fill="#000000" style="fill: rgb(255, 255, 255);"></path></svg>